<?xml version="1.0" encoding="utf-8"?>
<!-- Generator: Adobe Illustrator 26.1.0, SVG Export Plug-In . SVG Version: 6.00 Build 0)  -->
<svg version="1.1" id="Layer_1" xmlns="http://www.w3.org/2000/svg" xmlns:xlink="http://www.w3.org/1999/xlink" x="0px" y="0px"
	 viewBox="0 0 70.9 78" style="enable-background:new 0 0 70.9 78;" xml:space="preserve">
<style type="text/css">
	.st0{fill:#1834CB;}
	.st1{fill:#FFFFFF;}
</style>
<g>
	<g>
		<rect x="1.4" y="2.1" class="st0" width="68" height="73.7"/>
		<rect x="3.1" y="3.8" class="st1" width="64.6" height="46.2"/>
		<path class="st0" d="M51.7,12.2L39.1,42.5h-8.3l-6.2-24.2c-0.4-1.5-0.7-2-1.9-2.7c-1.9-1-5-2-7.7-2.6l0.2-0.9h13.3
			c1.7,0,3.2,1.1,3.6,3.1l3.3,17.5l8.1-20.6h8.2"/>
	</g>
	<g>
		<path class="st1" d="M18.3,69.3v-14h5.1c1,0,1.9,0.2,2.7,0.5s1.4,0.8,1.8,1.5s0.6,1.5,0.6,2.5s-0.2,1.9-0.6,2.5
			c-0.4,0.7-1,1.1-1.8,1.5c-0.8,0.4-1.7,0.5-2.7,0.5h-2.6v5.2h-2.5V69.3z M23.1,57.2h-2.3v5.1h2.3c0.9,0,1.6-0.2,2.1-0.6
			s0.7-1,0.7-2c0-0.9-0.2-1.6-0.7-2S24,57.2,23.1,57.2z"/>
		<path class="st1" d="M30.9,69.3h-2.3l5.3-14h2.6l5.2,14.1H39l-1.3-3.9h-5.4L30.9,69.3z M32.9,63.6H37l-2-5.7l0,0L32.9,63.6z"/>
		<path class="st1" d="M46.1,69.3v-6.1l-5-8h2.8l3.7,6.1h0.1l3.6-6.1h2.3l-5,8v6.1H46.1z"/>
	</g>
</g>
</svg>
